<?xml version="1.0" encoding="UTF-8"?>
<svg version="1.1" xmlns="http://www.w3.org/2000/svg" width="2000" height="607">
<path d="M0 0 C11.23254661 2.59337027 22.40718723 5.35280156 33.5546875 8.2890625 C35.14008337 8.70492137 36.72552918 9.12058991 38.3110199 9.53608704 C42.59959318 10.66053772 46.88746538 11.78764018 51.17520523 12.91526413 C55.78852774 14.12803797 60.40248159 15.33840555 65.01635742 16.54907227 C72.9189693 18.62301978 80.82117343 20.69851486 88.72314453 22.77490234 C99.95394862 25.7258999 111.1858779 28.67259804 122.41802406 31.61848259 C135.86152379 35.14436745 149.30472253 38.67137815 162.74584961 42.20629883 C163.77214635 42.47620605 164.79844309 42.74611326 165.85583973 43.02419949 C169.99673093 44.1132754 174.13760615 45.20241199 178.2784214 46.29177666 C190.79022691 49.5832196 203.30416813 52.8662904 215.8216486 56.13608837 C223.96971194 58.26471521 232.11626413 60.39905556 240.26172543 62.53761768 C245.03306863 63.7900063 249.80514874 65.03939813 254.57925415 66.28121948 C258.99687701 67.43034611 263.41230641 68.58754482 267.82621384 69.75085831 C269.42721482 70.17128523 271.02898635 70.58879179 272.63161087 71.00298691 C295.41075721 76.89486103 307.47769508 84.13393703 319.47924805 104.45825195 C320.95177244 106.97991157 322.42397186 109.50105667 323.875 112.03515625 C324.28492188 112.7506665 324.69484375 113.46617676 325.1171875 114.20336914 C326 116 326 116 326 118 C315.84296538 117.28451476 305.77430497 116.03268631 295.67797852 114.74682617 C293.85498389 114.51653036 292.03196479 114.28642815 290.20892334 114.0565033 C284.26509729 113.30581026 278.32198053 112.54958652 272.37890625 111.79296875 C270.32248687 111.53145709 268.2660643 111.26997055 266.2096386 111.00850868 C257.65370444 109.92032817 249.09794248 108.83081168 240.54266453 107.73748302 C228.32877352 106.17660524 216.11393963 104.6236247 203.89761978 103.0818674 C195.27879727 101.99349543 186.66113119 100.89625851 178.04426903 99.79247457 C172.90998932 99.13501657 167.77529912 98.48131724 162.63934517 97.83705711 C157.80754833 97.23073717 152.97728776 96.61336124 148.14794922 95.98777199 C146.38493627 95.76128363 144.62142206 95.53865488 142.85737419 95.32037354 C128.93253477 93.59373622 116.32666839 90.76420195 103.875 84 C102.98321045 83.52288574 102.0914209 83.04577148 101.17260742 82.55419922 C86.0712435 74.35688793 71.94701499 64.8232951 58.15673828 54.59814453 C56.04685169 53.03471714 53.92843066 51.48349096 51.80859375 49.93359375 C42.84964048 43.34458681 34.31530795 36.38228623 26 29 C25.47422363 28.5373877 24.94844727 28.07477539 24.40673828 27.59814453 C5.06546362 10.53445185 5.06546362 10.53445185 0 0 Z " fill="#000000" transform="translate(149,149)"/>
<path d="M0 0 C3.15888457 2.36534835 5.78411741 4.88915713 8.42578125 7.81640625 C10.83511784 5.40706966 9.8922851 -0.79576007 10.046875 -4.05859375 C10.17191406 -5.08984375 10.29695313 -6.12109375 10.42578125 -7.18359375 C14.41446445 -9.17793535 19.47812207 -8.36844411 23.86328125 -8.37109375 C25.4575293 -8.38946289 25.4575293 -8.38946289 27.08398438 -8.40820312 C28.10298828 -8.41013672 29.12199219 -8.41207031 30.171875 -8.4140625 C31.10700928 -8.41817139 32.04214355 -8.42228027 33.00561523 -8.42651367 C35.42578125 -8.18359375 35.42578125 -8.18359375 38.42578125 -6.18359375 C38.80330467 -4.07407856 38.80330467 -4.07407856 38.80673218 -1.41242981 C38.81519165 -0.40483109 38.82365112 0.60276764 38.83236694 1.64089966 C38.82629425 2.75093353 38.82022156 3.86096741 38.81396484 5.00463867 C38.8192218 6.17077194 38.82447876 7.33690521 38.82989502 8.53837585 C38.84086563 11.74589869 38.83824799 14.95305237 38.82875776 18.16056991 C38.82115947 21.52749008 38.82820939 24.89438561 38.83291626 28.26130676 C38.83838309 33.93002742 38.8311682 39.59863109 38.81689453 45.26733398 C38.80066836 51.78596925 38.80577892 58.30432154 38.82237375 64.82294959 C38.8360853 70.43679033 38.83785851 76.05054684 38.83005774 81.66439897 C38.82542057 85.0089031 38.82585008 88.35317083 38.83466721 91.69768333 C38.88431835 115.85482065 37.63504847 137.70366441 20.42578125 156.37890625 C12.70552987 163.82529736 2.77393116 169.10530532 -7.57421875 171.81640625 C-8.23268799 171.99196045 -8.89115723 172.16751465 -9.56958008 172.34838867 C-31.24127363 177.65537997 -53.59582379 172.92322531 -72.57421875 161.81640625 C-79.27112597 157.7256846 -79.27112597 157.7256846 -80.57421875 153.81640625 C-79.61791992 151.74755859 -79.61791992 151.74755859 -78.1171875 149.40234375 C-77.58158203 148.55929687 -77.04597656 147.71625 -76.49414062 146.84765625 C-75.92244141 145.97109375 -75.35074219 145.09453125 -74.76171875 144.19140625 C-74.20162109 143.30710937 -73.64152344 142.4228125 -73.06445312 141.51171875 C-68.85800086 134.95829731 -68.85800086 134.95829731 -66.57421875 133.81640625 C-64.63613709 134.95574508 -62.74880667 136.18169118 -60.88671875 137.44140625 C-46.32144842 146.72020378 -30.49001048 149.4895496 -13.57421875 145.81640625 C-4.78127058 142.84895718 1.80929834 137.85703752 6.05078125 129.56640625 C8.39964355 124.32559209 9.55534663 120.13817474 9.5234375 114.39453125 C9.52021484 113.36972656 9.51699219 112.34492188 9.51367188 111.2890625 C9.50529297 110.22558594 9.49691406 109.16210938 9.48828125 108.06640625 C9.48376953 106.98746094 9.47925781 105.90851563 9.47460938 104.796875 C9.46283852 102.13666242 9.44639524 99.4765626 9.42578125 96.81640625 C8.70777344 97.72132813 7.98976563 98.62625 7.25 99.55859375 C0.15424466 108.05354724 -9.84134928 113.45573966 -20.57421875 115.81640625 C-38.80929601 117.21584241 -54.56717138 114.75596639 -68.82421875 102.56640625 C-80.18802261 91.81491511 -88.40605997 76.97294989 -89.0078125 61.171875 C-89.02488804 58.78261275 -89.02591761 56.39318733 -89.01171875 54.00390625 C-89.03169922 52.82248047 -89.05167969 51.64105469 -89.07226562 50.42382812 C-89.0627458 33.05015571 -82.34545654 18.3774076 -70.57421875 5.81640625 C-51.3683266 -12.69681438 -21.82883828 -14.62626935 0 0 Z M-52.23046875 24.66796875 C-61.22586846 36.08859877 -61.65828962 48.77665468 -60.57421875 62.81640625 C-59.78051941 66.59441509 -58.60049173 69.54416416 -56.57421875 72.81640625 C-56.13851563 73.52796875 -55.7028125 74.23953125 -55.25390625 74.97265625 C-50.87855418 81.38027568 -44.63309102 86.87379403 -37.1640625 89.34375 C-24.7651161 91.60660447 -13.82029733 90.19849764 -3.32421875 83.12890625 C3.97445123 77.26048069 8.53411809 68.74971909 9.72729492 59.47192383 C9.86129675 57.09877871 9.89376947 54.75553531 9.86328125 52.37890625 C9.85570801 51.54633301 9.84813477 50.71375977 9.84033203 49.85595703 C9.6695805 43.48331042 8.69643349 38.3693828 5.42578125 32.81640625 C4.78962891 31.65431641 4.78962891 31.65431641 4.140625 30.46875 C-0.44930759 22.81033879 -7.20494581 16.69866749 -15.9296875 14.25390625 C-29.43978349 12.01885344 -42.79598051 14.12092293 -52.23046875 24.66796875 Z " fill="#000000" transform="translate(1538.57421875,275.18359375)"/>
<path d="M0 0 C11.87649541 0.69104783 23.62474724 2.28137207 35.41455078 3.81982422 C37.66456698 4.11093492 39.91461885 4.40177009 42.16470337 4.69235229 C48.24342868 5.47837479 54.32157341 6.26879973 60.39956522 7.06047201 C64.20193001 7.55554912 68.00441461 8.04969527 71.80694199 8.54352188 C84.40246482 10.17933655 96.99759466 11.8181212 109.59225191 13.46058403 C110.26902069 13.54884032 110.94578948 13.63709662 111.64306641 13.72802734 C112.32067087 13.81639335 112.99827533 13.90475936 113.69641326 13.99580313 C124.68693538 15.42887443 135.67840826 16.85450614 146.6703247 18.27683936 C157.9863655 19.74120783 169.30161999 21.21149906 180.61616123 22.6874162 C186.95673008 23.51439773 193.29758916 24.33897076 199.63925552 25.15749741 C205.60083867 25.92716373 211.56141066 26.70423686 217.52129745 27.48692703 C219.70296539 27.77217038 221.88497618 28.05480594 224.06735229 28.33457947 C254.74378521 32.2715162 254.74378521 32.2715162 263 42 C265.48824599 45.67477377 267.55330311 49.48425527 269.5625 53.4375 C270.09423828 54.44232422 270.62597656 55.44714844 271.17382812 56.48242188 C275 63.76544402 275 63.76544402 275 65 C258.22918571 65.65976103 241.45809626 66.31197518 224.68666172 66.95575714 C216.89538085 67.25499727 209.10420101 67.55649759 201.31323242 67.86376953 C194.50443792 68.13229877 187.69547841 68.39612913 180.88630337 68.65483522 C177.29744953 68.79133989 173.70870405 68.92984222 170.12014961 69.07402039 C160.74844412 69.44930079 151.376512 69.76733887 142 70 C141.28687952 70.0182571 140.57375903 70.03651421 139.83902884 70.05532455 C135.40966325 70.16518926 130.98104675 70.24563722 126.55055225 70.29201031 C125.16147005 70.3091711 123.77244932 70.33303734 122.38362038 70.36462879 C107.57352843 70.68545086 95.12239011 67.13526856 81.875 60.5625 C80.80878418 60.04026855 79.74256836 59.51803711 78.64404297 58.97998047 C50.73053404 45.04189863 22.74091345 25.56651776 1 3 C0.67 2.01 0.34 1.02 0 0 Z " fill="#000000" transform="translate(222,245)"/>
<path d="M0 0 C1.1653125 -0.00128906 2.330625 -0.00257813 3.53125 -0.00390625 C4.7584375 -0.00003906 5.985625 0.00382813 7.25 0.0078125 C9.09078125 0.00201172 9.09078125 0.00201172 10.96875 -0.00390625 C12.71671875 -0.00197266 12.71671875 -0.00197266 14.5 0 C15.57765625 0.00112793 16.6553125 0.00225586 17.765625 0.00341797 C20.25 0.1328125 20.25 0.1328125 21.25 1.1328125 C21.37391682 3.24886346 21.42799906 5.36902533 21.45532227 7.48852539 C21.46522186 8.15191422 21.47512146 8.81530304 21.48532104 9.49879456 C21.51701737 11.70098245 21.54172534 13.90319195 21.56640625 16.10546875 C21.58696878 17.62862218 21.60796505 19.15176981 21.62937927 20.6749115 C21.68467247 24.69112464 21.73404963 28.70738988 21.78222656 32.72369385 C21.83238882 36.81909849 21.88810236 40.91442711 21.94335938 45.00976562 C22.05102954 53.05071705 22.15245467 61.09173191 22.25 69.1328125 C23.22287019 68.15994231 24.13444801 67.12696967 25.04296875 66.09375 C33.48378835 56.97821562 44.96962115 49.43437696 57.75390625 48.796875 C73.46577679 48.51483925 85.86729674 50.84112125 97.9375 61.5078125 C112.00639984 77.47791503 112.56546837 94.55439508 112.4453125 114.99609375 C112.44157399 116.88323312 112.43873099 118.77037446 112.43673706 120.65751648 C112.42916654 125.58114146 112.40957599 130.50464505 112.3873291 135.42822266 C112.36672746 140.46970987 112.35770498 145.51121704 112.34765625 150.55273438 C112.32632274 160.41281322 112.29226807 170.2728027 112.25 180.1328125 C108.28069011 180.15747131 104.31140966 180.17565273 100.34204102 180.18774414 C98.99079614 180.19278307 97.63955674 180.19961427 96.28833008 180.20825195 C94.34979566 180.22033669 92.411222 180.22551078 90.47265625 180.23046875 C89.30484619 180.23570557 88.13703613 180.24094238 86.93383789 180.24633789 C84.25 180.1328125 84.25 180.1328125 83.25 179.1328125 C83.14091277 176.66069516 83.09577753 174.21548953 83.09228516 171.74243164 C83.08720444 170.96830933 83.08212372 170.19418701 83.07688904 169.39660645 C83.06615866 167.70837105 83.05754903 166.02012119 83.05076981 164.33186531 C83.03899746 161.65316956 83.01954428 158.97463627 82.99765015 156.29600525 C82.93601176 148.67712895 82.88216767 141.05826471 82.84863281 133.43920898 C82.82758264 128.78245083 82.79218545 124.12598127 82.74787521 119.46938896 C82.73378346 117.69976662 82.72500832 115.93009313 82.72182083 114.16041756 C82.80185407 96.88103991 82.80185407 96.88103991 75.0078125 81.828125 C68.78223852 75.82390476 61.33541814 75.48534077 53.06665039 75.5168457 C44.37449279 75.87385956 37.89078172 79.09882773 31.25 84.6328125 C23.90424192 93.8150101 22.18387037 102.08793145 22.04467773 113.72045898 C22.02982834 114.8046386 22.02982834 114.8046386 22.01467896 115.91072083 C21.98335363 118.27508384 21.95842249 120.63946687 21.93359375 123.00390625 C21.91299913 124.65300488 21.89200203 126.30209852 21.87062073 127.95118713 C21.81565891 132.27310124 21.76613642 136.59506091 21.71777344 140.91705322 C21.66736831 145.33471694 21.61178189 149.75231519 21.55664062 154.16992188 C21.44937615 162.82416325 21.34786195 171.47845972 21.25 180.1328125 C16.77084672 180.16167588 12.29171709 180.17956437 7.8125 180.1953125 C6.53310547 180.20369141 5.25371094 180.21207031 3.93554688 180.22070312 C2.72060547 180.22392578 1.50566406 180.22714844 0.25390625 180.23046875 C-1.43496704 180.23832397 -1.43496704 180.23832397 -3.15795898 180.24633789 C-5.75 180.1328125 -5.75 180.1328125 -6.75 179.1328125 C-6.84930544 176.84421031 -6.87632456 174.55247433 -6.87698364 172.26171875 C-6.87854363 171.53469757 -6.88010362 170.80767639 -6.88171089 170.05862427 C-6.88572347 167.60416685 -6.88253026 165.14977046 -6.87939453 162.6953125 C-6.88074846 160.94311486 -6.88252834 159.19091751 -6.88470459 157.4387207 C-6.88927995 152.66613066 -6.88748894 147.89356212 -6.8843255 143.12097168 C-6.88180243 138.13793884 -6.88413929 133.15490791 -6.88571167 128.171875 C-6.88753352 119.80207995 -6.88512665 111.43229371 -6.88037109 103.0625 C-6.87492844 93.37120864 -6.87669109 83.67993831 -6.8821975 73.98864746 C-6.88672819 65.68379536 -6.88737939 57.37894961 -6.88475883 49.07409668 C-6.88319581 44.10701146 -6.88300296 39.13993615 -6.88629532 34.17285156 C-6.8891734 29.50425222 -6.88719951 24.83568012 -6.88140106 20.16708374 C-6.88007312 18.44851731 -6.88046815 16.7299486 -6.88266373 15.01138306 C-6.88537391 12.67552596 -6.88199575 10.33975761 -6.87698364 8.00390625 C-6.87660662 6.69349365 -6.87622959 5.38308105 -6.87584114 4.03295898 C-6.65684612 -1.01402031 -4.52307434 0.00473408 0 0 Z " fill="#000000" transform="translate(1620.75,216.8671875)"/>
<path d="M0 0 C3.1531654 2.1733388 6.09966518 4.50083299 9 7 C9.61746094 7.52207031 10.23492188 8.04414063 10.87109375 8.58203125 C21.92151586 18.69722832 25.55385867 31.53858667 27 46 C27 53.59 27 61.18 27 69 C-22.5 69.495 -22.5 69.495 -73 70 C-69.88568411 80.22253453 -69.88568411 80.22253453 -66 85 C-66 85.66 -66 86.32 -66 87 C-65.34 87 -64.68 87 -64 87 C-64 87.66 -64 88.32 -64 89 C-63.2265625 89.37125 -63.2265625 89.37125 -62.4375 89.75 C-60 91 -60 91 -56.875 92.9375 C-44.87683058 99.63940635 -29.92325593 100.02706372 -16.8125 96.375 C-12.10375481 94.70144598 -8.3662192 92.52981787 -4.5859375 89.26953125 C-3 88 -3 88 0 87 C0 86.34 0 85.68 0 85 C5.07969762 85.37525694 7.039008 87.70814393 10.3125 91.4375 C10.76689453 91.94087891 11.22128906 92.44425781 11.68945312 92.96289062 C15 96.71152491 15 96.71152491 15 99 C15.66 99 16.32 99 17 99 C17.33 99.99 17.66 100.98 18 102 C7.69900987 114.43573479 -6.55200789 120.04074952 -22 123 C-22.81210937 123.19078125 -23.62421875 123.3815625 -24.4609375 123.578125 C-43.38877382 126.7230578 -60.83826959 121.32258203 -76.73046875 111.2734375 C-89.69294195 101.85835369 -98.02071438 86.57847839 -101 71 C-101.3952694 66.48997955 -101.42080829 62.02484158 -101.375 57.5 C-101.38660156 56.35402344 -101.39820313 55.20804687 -101.41015625 54.02734375 C-101.35521804 37.93044734 -95.58023868 22.13295344 -84.453125 10.2890625 C-61.94859259 -10.88045528 -27.03322332 -16.79689091 0 0 Z M-56 20 C-57.30517578 20.76376953 -57.30517578 20.76376953 -58.63671875 21.54296875 C-66.2247303 26.3837878 -70.88188244 32.14241748 -73 41 C-73 42.98 -73 44.96 -73 47 C-49.24 47 -25.48 47 -1 47 C-3.17661443 32.80685925 -3.17661443 32.80685925 -11.9375 22.625 C-24.14087628 14.32854268 -42.95124835 12.02968142 -56 20 Z " fill="#000000" transform="translate(1024,275)"/>
<path d="M0 0 C1.7639209 -0.02803711 1.7639209 -0.02803711 3.56347656 -0.05664062 C18.02043071 0.04885497 31.45808518 5.11169303 41.73828125 15.43359375 C46.89894978 21.45621548 48.91738833 27.88898699 50.8125 35.5 C50.98986631 36.14006926 51.16723263 36.78013851 51.34997368 37.43960381 C52.14292679 40.97193809 51.950747 44.58033461 51.94189453 48.18408203 C51.94452301 49.49687134 51.94452301 49.49687134 51.94720459 50.83618164 C51.95160317 53.72674547 51.94869262 56.61724805 51.9453125 59.5078125 C51.94598599 61.51512667 51.94695639 63.52244075 51.94821167 65.52975464 C51.94968584 69.73452532 51.94754263 73.93927476 51.94287109 78.14404297 C51.93716663 83.54249825 51.94045913 88.9409039 51.94644356 94.33935738 C51.95005047 98.48278175 51.94891011 102.62619427 51.94631577 106.76961899 C51.94564724 108.76080201 51.94647234 110.7519861 51.94879532 112.74316788 C51.95132476 115.52037676 51.94747743 118.29750424 51.94189453 121.07470703 C51.94391876 121.90279877 51.94594299 122.7308905 51.94802856 123.58407593 C51.92676558 129.27146884 51.92676558 129.27146884 50.8125 131.5 C46.83334841 131.52886984 42.85422347 131.54675406 38.875 131.5625 C37.17053711 131.57506836 37.17053711 131.57506836 35.43164062 131.58789062 C34.35205078 131.59111328 33.27246094 131.59433594 32.16015625 131.59765625 C30.65980835 131.60551147 30.65980835 131.60551147 29.12915039 131.61352539 C26.8125 131.5 26.8125 131.5 25.8125 130.5 C25.73978259 128.14686445 25.72879132 125.79166332 25.75 123.4375 C25.75902344 122.14714844 25.76804687 120.85679687 25.77734375 119.52734375 C25.78894531 118.52832031 25.80054688 117.52929688 25.8125 116.5 C25.1525 116.5 24.4925 116.5 23.8125 116.5 C23.8125 117.16 23.8125 117.82 23.8125 118.5 C10.99621708 129.72974113 -2.6624557 134.0203557 -19.44140625 133.75 C-32.43617748 132.88277856 -43.43975344 127.99444363 -52.91796875 119.11328125 C-62.20700082 108.41730456 -63.11410377 96.53785968 -62.44824219 83.04589844 C-61.64299936 75.1834713 -57.51932309 69.44284733 -52 64.0625 C-39.66862541 54.060154 -24.97801511 52.31616544 -9.68359375 52.40234375 C-8.7197023 52.4037587 -7.75581085 52.40517365 -6.76271057 52.40663147 C-3.71677402 52.41218058 -0.67091393 52.42472331 2.375 52.4375 C4.45377497 52.44252159 6.53255111 52.44708334 8.61132812 52.45117188 C13.67841439 52.46213329 18.74544428 52.4793622 23.8125 52.5 C23.53418854 50.26182561 23.24415881 48.02510637 22.94921875 45.7890625 C22.70884888 43.92048584 22.70884888 43.92048584 22.46362305 42.01416016 C21.46231117 36.6100045 19.49211646 32.71853533 15.24609375 29.203125 C7.02899505 23.9411314 -3.32337563 23.39965307 -12.6640625 25.15234375 C-20.93042943 27.1461983 -27.79595793 30.04207704 -35.1640625 34.20703125 C-38.1875 35.5 -38.1875 35.5 -40.82421875 35.52734375 C-44.10091979 34.1029266 -45.35535881 32.17203406 -47.375 29.25 C-48.04917969 28.29609375 -48.72335937 27.3421875 -49.41796875 26.359375 C-51.01571507 23.77758624 -52.17248433 21.35245429 -53.1875 18.5 C-37.65842559 5.55910466 -19.97863824 0.21914411 0 0 Z M-31.578125 79.96484375 C-34.78621174 84.76567778 -35.07070564 89.89434785 -34.1875 95.5 C-32.38198332 100.83540322 -29.08975728 103.85278107 -24.1875 106.5 C-15.3120112 110.1758425 -3.61905149 110.04699687 5.54296875 107.4375 C13.43757723 103.75535055 19.51645566 98.45252303 22.75 90.25 C24.3045461 84.79478302 24.28719415 79.12329989 23.8125 73.5 C21.79230559 71.47980559 17.67441159 72.33599086 14.90234375 72.33203125 C14.10147842 72.32870285 13.3006131 72.32537445 12.47547913 72.32194519 C10.77312801 72.3168691 9.07076688 72.31453707 7.3684082 72.31469727 C4.78514674 72.31252949 2.20232536 72.29443373 -0.38085938 72.27539062 C-2.03645688 72.27245295 -3.69205641 72.27047066 -5.34765625 72.26953125 C-6.11255875 72.26234573 -6.87746124 72.25516022 -7.6655426 72.24775696 C-15.85541985 72.28194883 -25.67411973 73.74573708 -31.578125 79.96484375 Z " fill="#000000" transform="translate(706.1875,265.5)"/>
<path d="M0 0 C12.01165994 7.50477246 18.72394927 18.10581893 22.45703125 31.64453125 C23.92480319 42.11638305 23.60411636 52.82746414 23.58984375 63.37890625 C23.59051877 65.15155043 23.59149044 66.92419451 23.59274292 68.69683838 C23.59420597 72.3812347 23.59210746 76.06560655 23.58740234 79.75 C23.58165524 84.48130064 23.58502395 89.21254517 23.59097481 93.94384384 C23.59457539 97.58966501 23.59344504 101.23547269 23.59084702 104.88129425 C23.59017894 106.62768816 23.59100201 108.37408328 23.59332657 110.12047577 C23.59585022 112.544869 23.59201896 114.9691685 23.58642578 117.39355469 C23.58845001 118.11759491 23.59047424 118.84163513 23.59255981 119.58761597 C23.57130473 124.53025777 23.57130473 124.53025777 22.45703125 125.64453125 C20.46946097 125.74436183 18.47835605 125.77533878 16.48828125 125.77734375 C15.27785156 125.77863281 14.06742188 125.77992188 12.8203125 125.78125 C11.54542969 125.77738281 10.27054688 125.77351562 8.95703125 125.76953125 C7.04470703 125.77533203 7.04470703 125.77533203 5.09375 125.78125 C3.27810547 125.77931641 3.27810547 125.77931641 1.42578125 125.77734375 C0.30623047 125.77621582 -0.81332031 125.77508789 -1.96679688 125.77392578 C-4.54296875 125.64453125 -4.54296875 125.64453125 -5.54296875 124.64453125 C-5.65205391 122.16714279 -5.69719121 119.71660816 -5.70068359 117.23828125 C-5.70576431 116.46255264 -5.71084503 115.68682404 -5.71607971 114.8875885 C-5.72680957 113.19607689 -5.73541941 111.50455085 -5.74219894 109.8130188 C-5.75396826 107.13039711 -5.77341995 104.44793786 -5.7953186 101.76538086 C-5.85697216 94.1354723 -5.91083159 86.50557629 -5.94433594 78.87548828 C-5.96536608 74.21225056 -6.00074623 69.54930213 -6.04509354 64.88623047 C-6.05919945 63.11299057 -6.06796368 61.3396994 -6.07114792 59.56640625 C-6.02077679 46.80760053 -6.02077679 46.80760053 -9.54296875 34.64453125 C-9.93782974 33.70637573 -9.93782974 33.70637573 -10.34066772 32.74926758 C-12.82574214 27.56928051 -16.56447286 25.11844502 -21.54296875 22.64453125 C-28.9026929 20.19128987 -40.43427197 20.20030427 -47.66796875 23.26953125 C-48.98554811 24.01727687 -50.27921187 24.80903294 -51.54296875 25.64453125 C-52.23519531 26.03382813 -52.92742187 26.423125 -53.640625 26.82421875 C-59.97813793 30.82810542 -63.01834258 36.71709681 -65.54296875 43.64453125 C-66.39704732 48.56578193 -66.68938485 53.33378083 -66.74829102 58.32397461 C-66.76314041 59.42278458 -66.76314041 59.42278458 -66.77828979 60.54379272 C-66.809621 62.94062176 -66.83454866 65.33747054 -66.859375 67.734375 C-66.87996911 69.40589381 -66.90096619 71.0774077 -66.92234802 72.74891663 C-66.97731511 77.13001499 -67.02683532 81.51115837 -67.07519531 85.89233398 C-67.12559654 90.37032028 -67.18118502 94.84824191 -67.23632812 99.32617188 C-67.34359909 108.09890493 -67.44463202 116.87169349 -67.54296875 125.64453125 C-76.78296875 125.64453125 -86.02296875 125.64453125 -95.54296875 125.64453125 C-95.54296875 83.07453125 -95.54296875 40.50453125 -95.54296875 -3.35546875 C-92.95572886 -4.64908869 -91.06183872 -4.48495824 -88.16796875 -4.48828125 C-87.100625 -4.48957031 -86.03328125 -4.49085938 -84.93359375 -4.4921875 C-83.8146875 -4.48832031 -82.69578125 -4.48445313 -81.54296875 -4.48046875 C-80.4240625 -4.48433594 -79.30515625 -4.48820312 -78.15234375 -4.4921875 C-76.55132813 -4.49025391 -76.55132813 -4.49025391 -74.91796875 -4.48828125 C-73.44457031 -4.48658936 -73.44457031 -4.48658936 -71.94140625 -4.48486328 C-69.54296875 -4.35546875 -69.54296875 -4.35546875 -67.54296875 -3.35546875 C-67.54296875 2.91453125 -67.54296875 9.18453125 -67.54296875 15.64453125 C-65.89296875 13.99453125 -64.24296875 12.34453125 -62.54296875 10.64453125 C-45.84476833 -5.98956859 -21.36819041 -11.38980349 0 0 Z " fill="#000000" transform="translate(1174.54296875,271.35546875)"/>
<path d="M0 0 C1.04994141 -0.02900391 2.09988281 -0.05800781 3.18164062 -0.08789062 C4.19291016 -0.09626953 5.20417969 -0.10464844 6.24609375 -0.11328125 C7.16962646 -0.12786377 8.09315918 -0.14244629 9.04467773 -0.1574707 C12.44852708 0.4778837 13.457751 1.58078094 15.5625 4.3125 C16.69574502 6.64722769 17.67404413 8.89032861 18.59375 11.3046875 C18.86638672 11.9948143 19.13902344 12.6849411 19.41992188 13.39598083 C20.31039579 15.65617852 21.18631323 17.92173021 22.0625 20.1875 C22.6805464 21.76239274 23.29970008 23.33685137 23.91992188 24.91088867 C25.1882947 28.13294694 26.45164843 31.35690051 27.7109375 34.58251953 C30.21235545 40.98294772 32.75796352 47.36555506 35.3112793 53.74542236 C36.03611012 55.55897169 36.75738066 57.37394274 37.47851562 59.18896484 C40.2790789 66.21341057 43.19331457 73.17570555 46.21142578 80.10864258 C48.18040899 84.77777281 49.90196385 89.52624874 51.5625 94.3125 C53.91960543 91.95539457 54.58354841 90.0509384 55.77734375 86.94140625 C56.21022705 85.82435303 56.64311035 84.7072998 57.08911133 83.55639648 C57.78750122 81.73410522 57.78750122 81.73410522 58.5 79.875 C59.49955024 77.29308121 60.50350972 74.71288583 61.5078125 72.1328125 C61.76357559 71.47460007 62.01933868 70.81638763 62.28285217 70.13822937 C65.16885592 62.72574638 68.18042395 55.3654876 71.20898438 48.01025391 C73.61811991 42.14204398 75.98306947 36.26188721 78.27845764 30.34837341 C79.53547277 27.11056058 80.80207385 23.87652504 82.06845093 20.6423645 C82.68628584 19.0556673 83.29915758 17.467028 83.90689087 15.87643433 C84.75761388 13.6508777 85.62506155 11.43251514 86.49609375 9.21484375 C86.87207199 8.2105835 86.87207199 8.2105835 87.25564575 7.18603516 C88.30777246 4.5462653 89.13097627 2.64174461 91.41967773 0.89550781 C93.99718655 0.19423277 96.24091635 0.07021957 98.9140625 0.08203125 C100.43773437 0.08493164 100.43773437 0.08493164 101.9921875 0.08789062 C103.04664063 0.10013672 104.10109375 0.11238281 105.1875 0.125 C106.2496875 0.12564453 107.311875 0.12628906 108.40625 0.12695312 C116.28158181 0.1720409 116.28158181 0.1720409 118.5625 1.3125 C118.07221835 8.30651776 115.33535651 14.22074154 112.625 20.625 C111.62146567 23.0381354 110.62022257 25.45222472 109.62109375 27.8671875 C109.36634277 28.4816423 109.1115918 29.09609711 108.84912109 29.72917175 C105.75317641 37.22342756 102.87417039 44.8004227 100.00024414 52.38208008 C97.73503845 58.33805448 95.37046796 64.23850335 92.90185547 70.11303711 C90.32654502 76.26495898 87.82405468 82.44684707 85.3125 88.625 C84.89029678 89.66191986 84.89029678 89.66191986 84.45956421 90.7197876 C80.28919342 100.96560257 76.19641014 111.23764566 72.27832031 121.58325195 C71.94541992 122.45038818 71.61251953 123.31752441 71.26953125 124.2109375 C70.9856958 124.96036621 70.70186035 125.70979492 70.40942383 126.48193359 C69.5625 128.3125 69.5625 128.3125 67.5625 130.3125 C64.48974609 130.53955078 64.48974609 130.53955078 60.5859375 130.5078125 C59.90069 130.5049826 59.2154425 130.50215271 58.50942993 130.49923706 C56.31860973 130.48803281 54.12819684 130.46292859 51.9375 130.4375 C50.4531309 130.42747048 48.9687554 130.41834458 47.484375 130.41015625 C43.84361739 130.38809294 40.20309844 130.35356176 36.5625 130.3125 C32.63226033 122.85848852 29.45435545 115.2370579 26.4375 107.375 C25.47277547 104.89005846 24.50693359 102.40558893 23.5390625 99.921875 C23.17149841 98.97723137 23.17149841 98.97723137 22.79650879 98.01350403 C20.20106432 91.35722698 17.51507744 84.73843769 14.8125 78.125 C14.35327148 77.00085693 13.89404297 75.87671387 13.42089844 74.71850586 C11.14642444 69.16018807 8.85979392 63.60699947 6.56420898 58.05737305 C3.98445705 51.81956018 1.48442152 45.56010561 -0.9140625 39.25 C-4.29230754 30.44814491 -7.86025386 21.71801082 -11.37182617 12.96875 C-11.72349854 12.0921875 -12.0751709 11.215625 -12.4375 10.3125 C-12.81302002 9.4565625 -13.18854004 8.600625 -13.57543945 7.71875 C-14.4375 5.3125 -14.4375 5.3125 -14.4375 1.3125 C-9.71586704 -0.26137765 -4.94563637 0.04537281 0 0 Z " fill="#000000" transform="translate(791.4375,266.6875)"/>
<path d="M0 0 C5.77170624 3.50295379 5.77170624 3.50295379 7.234375 6.6796875 C7.234375 11.04981624 5.17044269 14.06342455 2.984375 17.7578125 C2.57574219 18.49 2.16710938 19.2221875 1.74609375 19.9765625 C-1.36201299 25.37327516 -1.36201299 25.37327516 -4.765625 26.5078125 C-6.27721683 25.2919669 -7.7844728 24.06900712 -9.2421875 22.7890625 C-13.4435729 19.25558965 -17.96668839 19.06905246 -23.26171875 19.1953125 C-27.3674578 19.70772923 -29.47869754 20.95876672 -32.765625 23.5078125 C-36.67293118 29.23852823 -36.81608092 35.55887849 -36.78515625 42.26953125 C-36.78233643 43.06705811 -36.7795166 43.86458496 -36.77661133 44.6862793 C-36.77298584 45.28738525 -36.76936035 45.88849121 -36.765625 46.5078125 C-35.42600708 46.48424683 -35.42600708 46.48424683 -34.05932617 46.46020508 C-30.74383744 46.40905811 -27.42876825 46.37145438 -24.11303711 46.34301758 C-22.67839948 46.32793661 -21.24380792 46.3074687 -19.80932617 46.28149414 C-17.74646641 46.24507813 -15.68421642 46.22808007 -13.62109375 46.21484375 C-11.75940552 46.19127808 -11.75940552 46.19127808 -9.86010742 46.16723633 C-6.765625 46.5078125 -6.765625 46.5078125 -4.85986328 47.75244141 C-3.4912598 49.94794766 -3.39232538 51.30712493 -3.40234375 53.88671875 C-3.40331055 55.14452148 -3.40331055 55.14452148 -3.40429688 56.42773438 C-3.42041016 57.29978516 -3.43652344 58.17183594 -3.453125 59.0703125 C-3.44990234 59.94623047 -3.44667969 60.82214844 -3.44335938 61.72460938 C-3.49853819 68.24072569 -3.49853819 68.24072569 -5.765625 70.5078125 C-16.325625 70.5078125 -26.885625 70.5078125 -37.765625 70.5078125 C-37.765625 105.4878125 -37.765625 140.4678125 -37.765625 176.5078125 C-47.005625 176.5078125 -56.245625 176.5078125 -65.765625 176.5078125 C-65.765625 141.5278125 -65.765625 106.5478125 -65.765625 70.5078125 C-70.715625 70.5078125 -75.665625 70.5078125 -80.765625 70.5078125 C-82.765625 68.5078125 -82.765625 68.5078125 -83.00854492 66.56835938 C-83.00443604 65.79556641 -83.00032715 65.02277344 -82.99609375 64.2265625 C-82.99416016 63.38480469 -82.99222656 62.54304688 -82.99023438 61.67578125 C-82.97798828 60.79535156 -82.96574219 59.91492188 -82.953125 59.0078125 C-82.95248047 58.12738281 -82.95183594 57.24695313 -82.95117188 56.33984375 C-82.90602557 49.78861365 -82.90602557 49.78861365 -81.765625 47.5078125 C-78.66498977 46.47426742 -76.45118432 46.37416254 -73.203125 46.3828125 C-72.23246094 46.38023437 -71.26179688 46.37765625 -70.26171875 46.375 C-67.765625 46.5078125 -67.765625 46.5078125 -65.765625 47.5078125 C-65.78882813 46.38503906 -65.81203125 45.26226562 -65.8359375 44.10546875 C-66.06997743 28.23330622 -66.06997743 28.23330622 -63.765625 21.5078125 C-63.43304687 20.44433594 -63.43304687 20.44433594 -63.09375 19.359375 C-59.25235993 9.03110925 -51.06922401 1.50378984 -41.40625 -3.37109375 C-27.03459912 -9.47266742 -13.47081331 -7.26815069 0 0 Z " fill="#000000" transform="translate(1305.765625,220.4921875)"/>
<path d="M0 0 C1.06734375 -0.00128906 2.1346875 -0.00257813 3.234375 -0.00390625 C4.35328125 -0.00003906 5.4721875 0.00382813 6.625 0.0078125 C7.74390625 0.00394531 8.8628125 0.00007812 10.015625 -0.00390625 C11.61664062 -0.00197266 11.61664062 -0.00197266 13.25 0 C14.72339844 0.00169189 14.72339844 0.00169189 16.2265625 0.00341797 C18.625 0.1328125 18.625 0.1328125 20.625 1.1328125 C20.625 14.0028125 20.625 26.8728125 20.625 40.1328125 C31.06618796 40.09324133 31.06618796 40.09324133 41.50732422 40.04272461 C42.8017041 40.04022705 44.09608398 40.03772949 45.4296875 40.03515625 C46.45074585 40.0274823 46.45074585 40.0274823 47.49243164 40.01965332 C52.3968564 40.0187407 52.3968564 40.0187407 54.625 41.1328125 C54.625 48.3928125 54.625 55.6528125 54.625 63.1328125 C51.65140551 64.61960975 48.96200821 64.24393855 45.6484375 64.23046875 C44.62056625 64.22834633 44.62056625 64.22834633 43.57192993 64.22618103 C41.38124239 64.22057925 39.1906567 64.20802656 37 64.1953125 C35.51562648 64.19029772 34.03125135 64.18573478 32.546875 64.18164062 C28.90621685 64.17060927 25.26561836 64.15334349 21.625 64.1328125 C21.60173766 72.19155227 21.58401452 80.25027779 21.57318783 88.30904293 C21.56798922 92.05182527 21.56094703 95.79458448 21.54956055 99.53735352 C21.53862354 103.15538826 21.53270045 106.77340087 21.53012276 110.39145088 C21.52828787 111.76560374 21.52470515 113.13975551 21.51926994 114.51389885 C20.82147885 129.23787743 20.82147885 129.23787743 26.625 142.1328125 C30.85623077 145.85116681 34.73246781 146.47545963 40.20703125 146.421875 C45.63170034 145.77336852 49.94712761 143.07016669 53.625 139.1328125 C57.90333586 140.55892445 59.09452433 143.72885525 61.25 147.4453125 C61.65734375 148.12271484 62.0646875 148.80011719 62.484375 149.49804688 C64.38167883 152.71152671 65.84194102 155.45506912 66.625 159.1328125 C54.62078786 168.65113875 44.18608382 173.38805998 28.625 172.1328125 C20.75407284 170.86879046 14.91403217 167.93916518 8.625 163.1328125 C7.59375 162.4109375 6.5625 161.6890625 5.5 160.9453125 C-2.43053327 154.12239561 -6.14389628 144.21007298 -7.375 134.1328125 C-7.48375701 131.7274774 -7.54984632 129.3199532 -7.58032227 126.91235352 C-7.59022186 126.22858139 -7.60012146 125.54480927 -7.61032104 124.84031677 C-7.64162116 122.60581794 -7.66656724 120.37129793 -7.69140625 118.13671875 C-7.71200307 116.57730086 -7.73300021 115.0178882 -7.75437927 113.45848083 C-7.80931848 109.37330393 -7.85885073 105.28807902 -7.90722656 101.20281982 C-7.95764842 97.02644629 -8.01322603 92.85014165 -8.06835938 88.67382812 C-8.1755961 80.493548 -8.27711621 72.31320987 -8.375 64.1328125 C-9.74785156 64.15021484 -9.74785156 64.15021484 -11.1484375 64.16796875 C-12.93121094 64.18150391 -12.93121094 64.18150391 -14.75 64.1953125 C-15.93335938 64.20691406 -17.11671875 64.21851563 -18.3359375 64.23046875 C-21.375 64.1328125 -21.375 64.1328125 -23.375 63.1328125 C-24.8681521 59.31378885 -24.59588 55.11435254 -24.625 51.0703125 C-24.645625 50.35037109 -24.66625 49.63042969 -24.6875 48.88867188 C-24.703125 46.78515625 -24.703125 46.78515625 -24.375 43.1328125 C-23.385 42.1428125 -22.395 41.1528125 -21.375 40.1328125 C-17.085 40.1328125 -12.795 40.1328125 -8.375 40.1328125 C-8.045 27.2628125 -7.715 14.3928125 -7.375 1.1328125 C-4.78776011 -0.16080744 -2.89386997 0.00332301 0 0 Z " fill="#000000" transform="translate(1782.375,226.8671875)"/>
<path d="M0 0 C0.94516165 -0.01868417 1.8903233 -0.03736834 2.86412621 -0.05661869 C7.6689725 -0.06026696 10.82633811 0.1773722 14.73193359 3.29467773 C18.69889752 7.38960824 24.73193359 15.40468204 24.73193359 21.29467773 C9.45060429 24.53858658 -5.83104078 27.78100335 -21.1130619 31.02165127 C-28.20898826 32.52642295 -35.30481101 34.03168001 -42.40039062 35.53808594 C-48.58593588 36.85128843 -54.77167485 38.16357392 -60.95764673 39.47476536 C-64.23209634 40.16885777 -67.5064179 40.86354091 -70.78056717 41.55904961 C-74.43841747 42.33598438 -78.09660787 43.111298 -81.75488281 43.88623047 C-82.8366983 44.11640366 -83.91851379 44.34657684 -85.03311157 44.58372498 C-123.79736138 52.78205497 -163.44554644 32.863319 -195.90869141 12.96655273 C-198.26806641 11.29467773 -198.26806641 11.29467773 -199.26806641 9.29467773 C-194.80130981 8.46208409 -190.45002182 8.07604689 -185.9125061 7.87071228 C-185.19335726 7.83718944 -184.47420842 7.80366659 -183.73326719 7.76912791 C-181.33436716 7.65821137 -178.93526748 7.55248731 -176.53613281 7.44677734 C-174.81065028 7.36811029 -173.08518164 7.28913819 -171.35972595 7.20988464 C-166.674888 6.99571475 -161.989852 6.78621914 -157.30475283 6.57785106 C-153.37734443 6.40279161 -149.45003612 6.22554093 -145.52272451 6.0483256 C-136.23421159 5.62926534 -126.94553081 5.2140819 -117.65673828 4.80126953 C-108.1308543 4.37785109 -98.6052822 3.94788504 -89.07984221 3.5146026 C-80.86642423 3.14124475 -72.65282249 2.77213358 -64.43906724 2.40627104 C-59.55002198 2.18845594 -54.66105745 1.96913397 -49.77226639 1.74567986 C-14.87757337 0.15431788 -14.87757337 0.15431788 0 0 Z " fill="#000000" transform="translate(486.26806640625,319.705322265625)"/>
<path d="M0 0 C1.1653125 -0.00128906 2.330625 -0.00257813 3.53125 -0.00390625 C4.7584375 -0.00003906 5.985625 0.00382813 7.25 0.0078125 C9.09078125 0.00201172 9.09078125 0.00201172 10.96875 -0.00390625 C12.71671875 -0.00197266 12.71671875 -0.00197266 14.5 0 C15.57765625 0.00112793 16.6553125 0.00225586 17.765625 0.00341797 C20.25 0.1328125 20.25 0.1328125 21.25 1.1328125 C21.34711942 3.43637683 21.3718657 5.74298908 21.37025452 8.04859924 C21.37110894 8.78040954 21.37196337 9.51221984 21.37284368 10.2662062 C21.37450066 12.73682129 21.36897359 15.2073696 21.36352539 17.67797852 C21.36324354 19.44165037 21.36340121 21.20532235 21.3639679 22.96899414 C21.36425595 27.77251093 21.35835792 32.57600297 21.35139394 37.37951398 C21.34516174 42.39370935 21.34455671 47.40790523 21.34336853 52.42210388 C21.34025482 61.9241801 21.33204089 71.42624488 21.32201904 80.92831606 C21.31085914 91.74312589 21.30534776 102.55793625 21.30032361 113.3727504 C21.28985831 135.62611083 21.2722581 157.87946095 21.25 180.1328125 C16.77084672 180.16167588 12.29171709 180.17956437 7.8125 180.1953125 C6.53310547 180.20369141 5.25371094 180.21207031 3.93554688 180.22070312 C2.72060547 180.22392578 1.50566406 180.22714844 0.25390625 180.23046875 C-1.43496704 180.23832397 -1.43496704 180.23832397 -3.15795898 180.24633789 C-5.75 180.1328125 -5.75 180.1328125 -6.75 179.1328125 C-6.84930544 176.84421031 -6.87632456 174.55247433 -6.87698364 172.26171875 C-6.87854363 171.53469757 -6.88010362 170.80767639 -6.88171089 170.05862427 C-6.88572347 167.60416685 -6.88253026 165.14977046 -6.87939453 162.6953125 C-6.88074846 160.94311486 -6.88252834 159.19091751 -6.88470459 157.4387207 C-6.88927995 152.66613066 -6.88748894 147.89356212 -6.8843255 143.12097168 C-6.88180243 138.13793884 -6.88413929 133.15490791 -6.88571167 128.171875 C-6.88753352 119.80207995 -6.88512665 111.43229371 -6.88037109 103.0625 C-6.87492844 93.37120864 -6.87669109 83.67993831 -6.8821975 73.98864746 C-6.88672819 65.68379536 -6.88737939 57.37894961 -6.88475883 49.07409668 C-6.88319581 44.10701146 -6.88300296 39.13993615 -6.88629532 34.17285156 C-6.8891734 29.50425222 -6.88719951 24.83568012 -6.88140106 20.16708374 C-6.88007312 18.44851731 -6.88046815 16.7299486 -6.88266373 15.01138306 C-6.88537391 12.67552596 -6.88199575 10.33975761 -6.87698364 8.00390625 C-6.87660662 6.69349365 -6.87622959 5.38308105 -6.87584114 4.03295898 C-6.65684612 -1.01402031 -4.52307434 0.00473408 0 0 Z " fill="#000000" transform="translate(1332.75,216.8671875)"/>
<path d="M0 0 C1.47054649 19.22214336 1.47054649 19.22214336 1 27 C-0.7228288 28.7228288 -3.05872109 28.57095098 -5.37182617 28.95092773 C-16.29430731 30.75369098 -25.21454511 33.57919755 -32.0625 42.9375 C-40.04790447 55.43013019 -40.13057802 69.90290862 -40.31640625 84.22265625 C-40.33702242 85.57743394 -40.35801995 86.93220587 -40.37937927 88.28697205 C-40.43411926 91.82302132 -40.48373689 95.35912391 -40.53222656 98.89526367 C-40.58279663 102.51550951 -40.63829581 106.13567959 -40.69335938 109.75585938 C-40.80035128 116.83717366 -40.90192278 123.91855617 -41 131 C-45.47915328 131.02886338 -49.95828291 131.04675187 -54.4375 131.0625 C-55.71689453 131.07087891 -56.99628906 131.07925781 -58.31445312 131.08789062 C-59.52939453 131.09111328 -60.74433594 131.09433594 -61.99609375 131.09765625 C-63.68496704 131.10551147 -63.68496704 131.10551147 -65.40795898 131.11352539 C-68 131 -68 131 -69 130 C-69.09611419 128.3424238 -69.12187755 126.68073014 -69.12025452 125.02037048 C-69.12231651 123.40279091 -69.12231651 123.40279091 -69.12442017 121.75253296 C-69.12082489 120.5592337 -69.11722961 119.36593445 -69.11352539 118.13647461 C-69.11367142 116.88787155 -69.11381744 115.63926849 -69.1139679 114.35282898 C-69.11338891 110.91909006 -69.10835955 107.48541062 -69.10139394 104.05168223 C-69.09515998 100.46687541 -69.09455657 96.88206787 -69.09336853 93.29725647 C-69.09025534 86.50449955 -69.08204212 79.71175865 -69.07201904 72.91900879 C-69.06085753 65.18757506 -69.05534736 57.45614058 -69.05032361 49.72470081 C-69.03985949 33.81645792 -69.02226029 17.90823102 -69 2 C-66.41276011 0.70638006 -64.51886997 0.87051051 -61.625 0.8671875 C-60.55765625 0.86589844 -59.4903125 0.86460937 -58.390625 0.86328125 C-57.27171875 0.86714844 -56.1528125 0.87101562 -55 0.875 C-53.88109375 0.87113281 -52.7621875 0.86726563 -51.609375 0.86328125 C-50.00835938 0.86521484 -50.00835938 0.86521484 -48.375 0.8671875 C-46.90160156 0.86887939 -46.90160156 0.86887939 -45.3984375 0.87060547 C-43 1 -43 1 -41 2 C-40.67 8.6 -40.34 15.2 -40 22 C-36.51425881 18.52721458 -36.51425881 18.52721458 -33.11328125 14.97265625 C-24.07437439 5.38474854 -13.33365001 -0.83335313 0 0 Z " fill="#000000" transform="translate(627,266)"/>
<path d="M0 0 C1.01771484 -0.00128906 2.03542969 -0.00257813 3.08398438 -0.00390625 C4.15068359 -0.00003906 5.21738281 0.00382812 6.31640625 0.0078125 C7.37923828 0.00394531 8.44207031 0.00007813 9.53710938 -0.00390625 C11.06561523 -0.00197266 11.06561523 -0.00197266 12.625 0 C13.56013428 0.00112793 14.49526855 0.00225586 15.45874023 0.00341797 C17.87890625 0.1328125 17.87890625 0.1328125 20.87890625 1.1328125 C20.87890625 43.7028125 20.87890625 86.2728125 20.87890625 130.1328125 C11.63890625 130.1328125 2.39890625 130.1328125 -7.12109375 130.1328125 C-7.12109375 87.5628125 -7.12109375 44.9928125 -7.12109375 1.1328125 C-4.59490659 -0.13028108 -2.82462074 0.00341108 0 0 Z " fill="#000000" transform="translate(1399.12109375,266.8671875)"/>
<path d="M0 0 C4.77992585 3.67743522 7.58629429 8.82429328 10.625 13.9375 C11.34042969 15.11602539 11.34042969 15.11602539 12.0703125 16.31835938 C17.14091212 24.73414625 21.1929435 31.66599084 19.55078125 41.76171875 C12.79198049 66.98358501 -3.69223406 92.72572816 -24 109 C-25.3226415 109.68763485 -26.65455923 110.35811889 -28 111 C-28.14009041 98.32233692 -27.69475044 85.72273219 -27.0625 73.0625 C-26.4688621 60.99783212 -25.94950708 48.94626501 -25.78515625 36.8671875 C-25.76289726 35.41393318 -25.76289726 35.41393318 -25.7401886 33.93132019 C-25.67070513 29.28801156 -25.62184141 24.64599495 -25.60571289 20.00219727 C-25.58428356 18.3334858 -25.56210851 16.66478368 -25.5390625 14.99609375 C-25.5441835 14.24089447 -25.5493045 13.48569519 -25.55458069 12.70761108 C-25.4890238 9.28197299 -25.25794592 7.34551031 -23.18261719 4.56567383 C-20.12532875 2.37256524 -17.31228641 1.91238678 -13.625 1.25 C-11.69527344 0.88648438 -11.69527344 0.88648438 -9.7265625 0.515625 C-3.00677711 -0.41415663 -3.00677711 -0.41415663 0 0 Z " fill="#000000" transform="translate(513,347)"/>
<path d="M0 0 C1.49006719 22.95807232 -8.37063068 47.30224817 -22.9140625 64.6875 C-31.17301521 73.84349252 -40.46243451 80.6399399 -53 82 C-50.71123559 71.65639494 -48.37375112 61.32440628 -46 51 C-45.71781616 49.7715033 -45.71781616 49.7715033 -45.42993164 48.51818848 C-44.2686187 43.47304836 -43.09071023 38.43216356 -41.89376831 33.39535522 C-41.50809087 31.76454327 -41.12663875 30.13272593 -40.74954224 28.49990845 C-40.21581591 26.19360526 -39.66647702 23.89154351 -39.11328125 21.58984375 C-38.88224701 20.5697673 -38.88224701 20.5697673 -38.64654541 19.52908325 C-37.25703723 13.87218066 -34.89853326 9.7038119 -30.5625 5.8125 C-21.4690343 1.18599991 -10.13667557 -0.25341689 0 0 Z " fill="#000000" transform="translate(480,355)"/>
<path d="M0 0 C-3.14585573 16.62809455 -11.90388735 31.12801476 -25.4375 41.4375 C-33.1175334 46.6443023 -40.65410341 50.47098699 -50 51 C-48.99898684 44.94116403 -46.35600576 39.73361598 -43.8125 34.1875 C-43.34263672 33.13240234 -42.87277344 32.07730469 -42.38867188 30.99023438 C-36.2900331 17.6364619 -28.85524731 8.35416058 -14.90625 3 C-9.86844474 1.26656163 -5.38214742 0 0 0 Z " fill="#000000" transform="translate(436,365)"/>
<path d="M0 0 C5.20102517 2.50763713 8.0291679 6.14229346 11.25 10.8125 C13.00655242 15.93577788 12.53258995 20.43231493 10.3125 25.25 C7.656358 30.036687 3.98515532 32.84401129 -1 35 C-6.23032677 35.84503579 -10.75236503 35.56720875 -15.375 32.875 C-18.91322462 30.28221192 -21.23727487 28.11302529 -23 24 C-23.95470516 17.58505131 -24.2067223 11.80879855 -20.3125 6.375 C-14.62946805 -0.35065538 -8.3957058 -1.0252558 0 0 Z " fill="#000000" transform="translate(1412,213)"/>
</svg>
